<?xml version="1.0" encoding="iso-8859-1"?>
<!-- Generator: Adobe Illustrator 19.0.0, SVG Export Plug-In . SVG Version: 6.00 Build 0)  -->
<svg version="1.1" id="Capa_1" xmlns="http://www.w3.org/2000/svg" xmlns:xlink="http://www.w3.org/1999/xlink" x="0px" y="0px"
	 viewBox="0 0 477.867 477.867" style="enable-background:new 0 0 477.867 477.867;" xml:space="preserve">
<g>
	<g>
		<path d="M341.333,204.425c-30.466,22.376-71.934,22.376-102.4,0c-30.466,22.376-71.934,22.376-102.4,0
			c-30.172,23.257-72.228,23.257-102.4,0c0,0.137,0,0.239,0,0.375v221.867c0,28.277,22.923,51.2,51.2,51.2h85.333V290.133
			c0-9.426,7.641-17.067,17.067-17.067h102.4c9.426,0,17.067,7.641,17.067,17.067v187.733h85.333c28.277,0,51.2-22.923,51.2-51.2
			V204.8c0-0.137,0-0.239,0-0.375C413.562,227.682,371.505,227.682,341.333,204.425z"/>
	</g>
</g>
<g>
	<g>
		<path d="M34.133,136.533c0,28.277,22.923,51.2,51.2,51.2c14.759-0.009,28.774-6.483,38.349-17.715
			c6.679-7.097,17.848-7.437,24.945-0.757c0.26,0.245,0.513,0.497,0.757,0.757c18.976,21.18,51.529,22.965,72.709,3.989
			c1.402-1.256,2.733-2.587,3.989-3.989c6.679-7.097,17.848-7.437,24.945-0.757c0.26,0.245,0.513,0.497,0.757,0.757
			c18.977,21.18,51.529,22.965,72.709,3.989c1.401-1.256,2.733-2.587,3.989-3.989c6.679-7.097,17.848-7.437,24.945-0.757
			c0.26,0.245,0.513,0.497,0.757,0.757c9.575,11.232,23.589,17.706,38.349,17.715c28.277,0,51.2-22.923,51.2-51.2H34.133z"/>
	</g>
</g>
<g>
	<g>
		<path d="M51.2,0c-7.349-0.002-13.874,4.701-16.196,11.674L4.762,102.4h114.705V0H51.2z"/>
	</g>
</g>
<g>
	<g>
		<rect x="153.6" y="0" width="68.267" height="102.4"/>
	</g>
</g>
<g>
	<g>
		<path d="M442.863,11.674C440.541,4.701,434.016-0.002,426.667,0H358.4v102.4h114.705L442.863,11.674z"/>
	</g>
</g>
<g>
	<g>
		<rect x="256" y="0" width="68.267" height="102.4"/>
	</g>
</g>
<g>
</g>
<g>
</g>
<g>
</g>
<g>
</g>
<g>
</g>
<g>
</g>
<g>
</g>
<g>
</g>
<g>
</g>
<g>
</g>
<g>
</g>
<g>
</g>
<g>
</g>
<g>
</g>
<g>
</g>
</svg>
