<svg id="Capa_1" enable-background="new 0 0 512.022 512.022" height="512" viewBox="0 0 512.022 512.022" width="512" xmlns="http://www.w3.org/2000/svg"><g><path d="m374.47 182.01c-4.034-.941-8.066 1.566-9.008 5.6-.941 4.034 1.566 8.067 5.6 9.008 13.117 3.061 36.506 19.637 41.321 24.453 1.465 1.464 3.385 2.197 5.304 2.197s3.839-.732 5.304-2.197c2.929-2.929 2.929-7.678 0-10.606-5.743-5.744-31.347-24.448-48.521-28.455zm-236.897 0c-17.174 4.007-42.777 22.71-48.521 28.454-2.929 2.929-2.929 7.678 0 10.606 1.465 1.464 3.385 2.197 5.304 2.197s3.839-.732 5.304-2.197c4.815-4.816 28.204-21.392 41.321-24.453 4.034-.941 6.541-4.974 5.6-9.008-.942-4.033-4.975-6.54-9.008-5.599zm266.058 260.249c-75.749 57.46-174.5 63.118-253.322 25.495 16.789-12.169 27.74-31.924 27.74-54.199 0-34.058-30.277-66.658-49.855-96.491-8.218-12.525-26.211-12.049-34.118 0-13.15 20.042-31.702 42.031-42 64.507-60.162-93.062-46.606-216.888 36.917-295.413 3.018-2.837 3.164-7.584.326-10.602-2.837-3.018-7.584-3.164-10.602-.327-91.911 86.413-103.988 224.079-32.793 323.963-11.724 50.941 38.496 95.444 88.197 77.208 85.426 45.348 195.227 41.034 278.573-22.192 3.301-2.503 3.946-7.208 1.443-10.508-2.502-3.298-7.207-3.945-10.506-1.441zm-292.497 23.21c-28.626 0-51.915-23.289-51.915-51.914 0-28.286 28.608-59.624 47.396-88.262 2.132-3.25 6.904-3.249 9.036 0 18.795 28.646 47.396 59.978 47.396 88.262.002 28.626-23.287 51.914-51.913 51.914zm4.7-216.476c-2.722-3.123-7.46-3.448-10.582-.726-3.123 2.721-3.447 7.459-.727 10.582 9.104 10.444 22.255 16.435 36.083 16.435s26.98-5.99 36.082-16.435c2.722-3.123 2.395-7.86-.727-10.582-3.125-2.721-7.86-2.396-10.582.727-6.253 7.175-15.282 11.29-24.774 11.29-9.49-.001-18.52-4.116-24.773-11.291zm140.188-243.6c-53.894 0-105.45 16.205-149.096 46.865-3.389 2.381-4.206 7.059-1.825 10.448 2.382 3.39 7.059 4.208 10.448 1.826 41.105-28.876 89.681-44.14 140.473-44.14 131.773 0 241 104.093 241 235.607 0 61.191-23.883 119.175-67.25 163.271-2.904 2.953-2.864 7.702.089 10.606 2.95 2.9 7.696 2.869 10.606-.088 46.143-46.919 71.555-108.639 71.555-173.789 0-138.901-114.944-250.606-256-250.606zm-41.152 314.985c10.514-15.114 25.513-23.782 41.152-23.782 15.64 0 30.639 8.668 41.152 23.782 2.36 3.391 7.032 4.245 10.44 1.874 3.4-2.365 4.239-7.04 1.874-10.44-13.359-19.202-32.847-30.215-53.467-30.215s-40.107 11.013-53.467 30.215c-2.365 3.4-1.526 8.075 1.874 10.44 3.404 2.366 8.077 1.525 10.442-1.874zm156.566-45.095c13.828 0 26.979-5.99 36.083-16.435 2.721-3.123 2.397-7.86-.727-10.582-3.123-2.723-7.859-2.397-10.582.726-6.253 7.175-15.283 11.29-24.774 11.29s-18.522-4.115-24.775-11.29c-2.723-3.123-7.46-3.448-10.582-.726-3.123 2.721-3.447 7.459-.727 10.582 9.105 10.445 22.256 16.435 36.084 16.435z"/></g></svg>